<svg xmlns="http://www.w3.org/2000/svg" xmlns:xlink="http://www.w3.org/1999/xlink" width="450" height="231" version="1.1" viewBox="78 246 450 231"><desc>Created with Sketch.</desc><defs><rect id="path-1" width="70" height="56" x="0" y="0"/><mask id="mask-2" width="70" height="56" x="0" y="0" fill="#fff" maskContentUnits="userSpaceOnUse" maskUnits="objectBoundingBox"><use xlink:href="#path-1"/></mask><rect id="path-3" width="8.953" height="24.5" x="8.326" y="31.5"/><mask id="mask-4" width="8.953" height="24.5" x="0" y="0" fill="#fff" maskContentUnits="userSpaceOnUse" maskUnits="objectBoundingBox"><use xlink:href="#path-3"/></mask><rect id="path-5" width="8.953" height="35" x="22.791" y="21"/><mask id="mask-6" width="8.953" height="35" x="0" y="0" fill="#fff" maskContentUnits="userSpaceOnUse" maskUnits="objectBoundingBox"><use xlink:href="#path-5"/></mask><rect id="path-7" width="8.953" height="43.75" x="37.256" y="12.25"/><mask id="mask-8" width="8.953" height="43.75" x="0" y="0" fill="#fff" maskContentUnits="userSpaceOnUse" maskUnits="objectBoundingBox"><use xlink:href="#path-7"/></mask><rect id="path-9" width="8.953" height="24.5" x="51.721" y="31.5"/><mask id="mask-10" width="8.953" height="24.5" x="0" y="0" fill="#fff" maskContentUnits="userSpaceOnUse" maskUnits="objectBoundingBox"><use xlink:href="#path-9"/></mask><polygon id="path-11" points="0 2.725 69 0 69 60 0 70.963"/><mask id="mask-12" width="69" height="70.963" x="0" y="0" fill="#fff" maskContentUnits="userSpaceOnUse" maskUnits="objectBoundingBox"><use xlink:href="#path-11"/></mask><rect id="path-13" width="11" height="120" x="0" y="0"/><mask id="mask-14" width="11" height="120" x="0" y="0" fill="#fff" maskContentUnits="userSpaceOnUse" maskUnits="objectBoundingBox"><use xlink:href="#path-13"/></mask><rect id="path-15" width="11" height="103" x="81" y="17"/><mask id="mask-16" width="11" height="103" x="0" y="0" fill="#fff" maskContentUnits="userSpaceOnUse" maskUnits="objectBoundingBox"><use xlink:href="#path-15"/></mask><rect id="path-17" width="11" height="120" x="81" y="0"/><mask id="mask-18" width="11" height="120" x="0" y="0" fill="#fff" maskContentUnits="userSpaceOnUse" maskUnits="objectBoundingBox"><use xlink:href="#path-17"/></mask><rect id="path-19" width="11" height="103" x="0" y="24"/><mask id="mask-20" width="11" height="103" x="0" y="0" fill="#fff" maskContentUnits="userSpaceOnUse" maskUnits="objectBoundingBox"><use xlink:href="#path-19"/></mask></defs><g id="Artboard" fill="none" fill-rule="evenodd" stroke="none" stroke-width="1" transform="translate(78.000000, 246.000000)"><g id="science-fair"><g id="header"><g id="board" fill="#212127" fill-rule="nonzero"><g id="Group"><rect id="Rectangle-path" width="252.1" height="188.846" x="99" y="25.78"/><polyline id="Shape" points="97.9 214.625 .2 230.42 .2 .309 97.9 25.78"/><polyline id="Shape" points="352.1 214.625 449.8 230.42 449.8 .31 352.1 25.78"/></g></g><g id="rosette" fill-rule="nonzero" stroke="#CAAD4D" transform="translate(263.000000, 61.000000)"><g id="Group"><polygon id="Shape" fill="#CAAD4D" stroke-width="2" points="15.7 51.4 .7 97.7 11.5 88.5 14.1 103.4 27.9 66.2 40.9 113.1 44 98.2 55.3 104.9 40.3 54.9"/><polygon id="Shape" fill="#6EACC1" stroke-width="16" points="2.3 15.2 27.3 .8 52.2 15.2 52.2 44 27.3 58.5 2.3 44"/></g></g><g id="text" font-family="Aleo-Regular, Aleo" font-size="37.041" font-weight="normal" transform="translate(126.000000, 112.000000)"><text id="science" fill="#6EACC1"><tspan x="1.784" y="34.829">science</tspan></text><text id="fair" fill="#CAAD4D"><tspan x=".754" y="70.327">fair</tspan></text></g></g><g id="mid-panel" stroke="#383838" transform="translate(121.000000, 46.000000)"><g id="plot"><use id="Rectangle-2" stroke-width="6" mask="url(#mask-2)" xlink:href="#path-1"/><use id="Rectangle-3" fill="#383838" stroke-width="2" mask="url(#mask-4)" xlink:href="#path-3"/><use id="Rectangle-3-Copy" fill="#383838" stroke-width="2" mask="url(#mask-6)" xlink:href="#path-5"/><use id="Rectangle-3-Copy-2" fill="#383838" stroke-width="2" mask="url(#mask-8)" xlink:href="#path-7"/><use id="Rectangle-3-Copy-3" fill="#383838" stroke-width="2" mask="url(#mask-10)" xlink:href="#path-9"/></g><path id="Line" stroke-linecap="square" stroke-width="3" d="M81.5,1.5 L115.514703,1.5"/><path id="Line-Copy-4" stroke-linecap="square" stroke-width="3" d="M81.5,13.5 L115.514703,13.5"/><path id="Line-Copy-5" stroke-linecap="square" stroke-width="3" d="M81.5,26.5 L115.514703,26.5"/><path id="Line-Copy-7" stroke-linecap="square" stroke-width="3" d="M81.5,40.5 L115.514703,40.5"/><path id="Line-Copy-6" stroke-linecap="square" stroke-width="3" d="M81.5,54.5 L115.514703,54.5"/></g><g id="left-panel" transform="translate(3.000000, 21.000000)"><path id="Line" stroke="#383838" stroke-linecap="square" stroke-width="4" d="M11.5,13.5 L80.5,25.5"/><path id="Line-Copy" stroke="#383838" stroke-linecap="square" stroke-width="4" d="M12,41 L80.5,48.5"/><path id="Line-Copy-2" stroke="#383838" stroke-linecap="square" stroke-width="4" d="M12,67 L80.5,71.5"/><path id="Line-Copy-3" stroke="#383838" stroke-linecap="square" stroke-width="4" d="M12,94.5 L80.5,94.5"/><g id="left-plot" stroke="#383838" transform="translate(12.000000, 115.000000)"><use id="Rectangle" stroke-width="6" mask="url(#mask-12)" xlink:href="#path-11"/><circle id="Oval" cx="16" cy="27" r="4" fill="#383838"/><circle id="Oval-Copy" cx="35" cy="35" r="4" fill="#383838"/><circle id="Oval-Copy-2" cx="53" cy="23" r="4" fill="#383838"/><polyline id="Path-2" stroke-width="2" points="2.3 33.717 16.211 27.26 35.251 35.35 53.814 22.647 67.622 12.592"/></g><use id="Rectangle-4" fill="#212127" stroke="#212127" stroke-width="2" mask="url(#mask-14)" xlink:href="#path-13"/><use id="Rectangle-5" fill="#212127" stroke="#212127" stroke-width="2" mask="url(#mask-16)" xlink:href="#path-15"/></g><g id="right-panel" transform="translate(354.000000, 14.000000)"><path id="Line" stroke="#383838" stroke-linecap="square" stroke-width="4" d="M11.5,20.5 L80.5,32.5" transform="translate(46.000000, 26.500000) scale(-1, 1) translate(-46.000000, -26.500000)"/><path id="Line-Copy" stroke="#383838" stroke-linecap="square" stroke-width="4" d="M12,48 L80.5,55.5" transform="translate(46.500000, 52.000000) scale(-1, 1) translate(-46.500000, -52.000000)"/><path id="Line-Copy-2" stroke="#383838" stroke-linecap="square" stroke-width="4" d="M12,74 L80.5,78.5" transform="translate(46.500000, 76.500000) scale(-1, 1) translate(-46.500000, -76.500000)"/><path id="Line-Copy-3" stroke="#383838" stroke-linecap="square" stroke-width="4" d="M12,101.5 L80.5,101.5" transform="translate(46.500000, 101.500000) scale(-1, 1) translate(-46.500000, -101.500000)"/><use id="Rectangle-4-Copy" fill="#212127" stroke="#212127" stroke-width="2" mask="url(#mask-18)" xlink:href="#path-17"/><use id="Rectangle-5-Copy" fill="#212127" stroke="#212127" stroke-width="2" mask="url(#mask-20)" xlink:href="#path-19"/><g id="graph" stroke="#383838" transform="translate(16.000000, 122.000000)"><circle id="Oval-2" cx="30" cy="31" r="7" fill="#383838"/><path id="Line" stroke-linecap="square" stroke-width="2" d="M29.4377209,29.0957676 L4,12"/><path id="Line" stroke-linecap="square" stroke-width="2" d="M29.5,30.5 L59.3756627,10.9352468"/><path id="Line" stroke-linecap="square" stroke-width="2" d="M30,29.5 L30,6.64242165"/><path id="Line" stroke-linecap="square" stroke-width="2" d="M29.5,30.5 L8.10290999,38.4593986"/><path id="Line" stroke-linecap="square" stroke-width="2" d="M29.5,30.5 L48.5,47.5"/><path id="Line" stroke-linecap="square" stroke-width="2" d="M29.5,31.5 L22.0785226,65.7295152"/><circle id="Oval-3" cx="4" cy="12" r="4" fill="#383838"/><circle id="Oval-3-Copy" cx="30" cy="4" r="4" fill="#383838"/><circle id="Oval-3-Copy-2" cx="22" cy="67" r="4" fill="#383838"/><circle id="Oval-3-Copy-3" cx="7" cy="39" r="4" fill="#383838"/><circle id="Oval-3-Copy-4" cx="49" cy="48" r="4" fill="#383838"/><circle id="Oval-3-Copy-5" cx="59" cy="11" r="4" fill="#383838"/></g></g></g></g></svg>