<svg xmlns="http://www.w3.org/2000/svg" xmlns:xlink="http://www.w3.org/1999/xlink" id="Layer_1" width="139.13" height="148.914" x="0" y="0" enable-background="new 0 0 139.13 148.914" version="1.1" viewBox="0 0 139.13 148.914" xml:space="preserve"><switch><g><polygon fill="#212127" points="68.892 142.515 10.091 108.569 10.091 40.672 68.893 6.723 127.692 40.672 127.692 108.569"/><rect width="67.796" height="12.679" x="8.646" y="22.702" fill="#6EADC1" transform="matrix(0.866 -0.5001 0.5001 0.866 -8.8218 25.1705)"/><polygon fill="#6EADC1" points="16.752 96.802 75.669 130.876 68.924 142.541 10.091 108.569"/><polygon fill="#C9AC4D" points="68.846 6.516 127.763 40.592 121.267 51.823 69.047 21.015"/><polygon fill="#6EADC1" points="127.692 108.569 68.892 142.515 61.896 130.616 120.699 96.512"/><polygon fill="#6EADC1" points="21.694 108.316 10.008 108.569 10.008 40.506 21.694 40.506"/><polygon fill="#C9AC4D" points="127.712 108.316 115.235 99.734 115.235 40.506 127.712 40.506"/><g><path fill="#6EADC1" d="M55.611,61.194c2.494,0,5.628,0.641,9.404,1.924v2.493v6.768h-2.778c-0.713,0-1.068-0.285-1.211-0.997 c0-0.143-0.143-1.71-0.428-4.702c-2.138-0.499-3.989-0.784-5.557-0.784H54.97c-1.995,0-3.634,0.57-4.916,1.567 s-1.924,2.066-1.924,3.277c0,1.211,0.285,2.137,0.855,2.707c0.997,1.14,2.351,1.924,4.132,2.494s3.277,0.926,4.417,1.354 l3.42,1.282c1.14,0.428,2.137,1.141,2.992,1.852c1.994,1.568,2.921,3.635,2.921,6.27c0,3.42-1.14,6.199-3.491,8.266 c-2.422,2.137-5.699,3.348-9.547,3.348c-3.847,0-7.837-0.641-11.684-1.924v-9.404h2.564c0.57,0,0.927,0.285,1.069,0.855 c0,0.213,0.143,1.709,0.427,4.561c1.995,0.996,4.488,1.424,7.339,1.424c2.351,0,4.203-0.641,5.557-1.781 c1.211-1.068,1.853-2.279,1.853-3.633s-0.285-2.352-0.855-2.992c-0.569-0.641-1.282-1.283-2.137-1.711 c-0.855-0.426-1.853-0.854-2.992-1.139c-3.135-0.998-5.344-1.711-6.626-2.279c-1.282-0.57-2.352-1.283-3.206-1.996 c-1.995-1.638-2.992-3.847-2.992-6.697c0-2.921,1.14-5.272,3.42-7.267c2.422-2.137,5.699-3.135,10.116-3.135H55.611z"/></g><g><path fill="#C9AC4D" d="M89.958,50.935c-4.845,0-7.267,2.707-7.267,8.193v3.348h10.401v4.56H82.833v25.576 c2.85,0.428,4.417,0.713,4.773,0.785c0.712,0.143,1.068,0.641,1.068,1.354v3.062H71.006V94.75c0-0.713,0.356-1.211,1.069-1.354 l4.417-0.785V67.178l-3.989-0.499c-1.141-0.285-1.71-0.784-1.71-1.639v-2.565h5.699v-3.491c0-4.132,1.068-7.338,3.349-9.618 c2.208-2.28,5.2-3.349,9.048-3.349c1.567,0,3.063,0.285,4.488,0.712l-0.143,3.206c0,0.427-0.214,0.712-0.642,0.855 c-0.427,0.143-0.926,0.143-1.639,0.143h-1.068H89.958z"/></g><path fill="none" stroke="#212127" stroke-miterlimit="10" stroke-width="5" d="M68.61,34.483"/></g></switch></svg>