<svg xmlns="http://www.w3.org/2000/svg" xmlns:svg="http://www.w3.org/2000/svg" x="0" y="0" version="1.1" viewBox="0 0 100 100"><g><path fill="#000" fill-opacity="1" stroke="none" marker="none" d="m 17.750009,1033.3566 a 3.0003,3.0003 0 0 1 -2.75,-3 l 0,-45.99994 c 0,-7.15011 5.84989,-13 13,-13 l 44,0 c 7.15011,0 13,5.84989 13,13 l 0,21.99994 c 0,7.1501 -5.84989,13 -13,13 l -36.84375,0 -15.1875,13.2812 a 3.0003,3.0003 0 0 1 -2.21875,0.7188 z m 3.25,-9.5938 11.03125,-9.6562 a 3.0003,3.0003 0 0 1 1.96875,-0.75 l 38,0 c 3.92991,0 7,-3.0701 7,-7 l 0,-21.99994 c 0,-3.92991 -3.07009,-7 -7,-7 l -44,0 c -3.92991,0 -7,3.07009 -7,7 l 0,39.40614 z" baseline-shift="baseline" color="#000" direction="ltr" display="inline" enable-background="accumulate" overflow="visible" transform="translate(0,-952.36218)" visibility="visible" style="text-indent:0;text-transform:none;block-progression:tb"/></g></svg>