<svg xmlns="http://www.w3.org/2000/svg" xmlns:svg="http://www.w3.org/2000/svg" x="0" y="0" version="1.1" viewBox="0 0 100 100"><g><path fill="#000" fill-opacity="1" stroke="none" marker="none" d="m 56.81245,980.34187 a 3.0003,3.0003 0 0 0 -2.625,2 l -14,37.99993 a 3.0010258,3.0010258 0 1 0 5.625,2.0938 l 14,-37.99998 a 3.0003,3.0003 0 0 0 -3,-4.09375 z m -23.0312,7.03128 a 3.0003,3.0003 0 0 0 -1.3125,0.4375 l -20,12 a 3.0003,3.0003 0 0 0 0,5.15615 l 20,12 a 3.0003,3.0003 0 1 0 3.0625,-5.1562 l -15.6875,-9.4063 15.6875,-9.43745 a 3.0003,3.0003 0 0 0 -1.75,-5.5937 z m 32.0312,0 a 3.0003,3.0003 0 0 0 -1.3437,5.5937 l 15.6875,9.43745 -15.6875,9.4063 a 3.0003,3.0003 0 1 0 3.0625,5.1562 l 20,-12 a 3.0003,3.0003 0 0 0 0,-5.15615 l -20,-12 a 3.0003,3.0003 0 0 0 -1.7188,-0.4375 z" baseline-shift="baseline" color="#000" direction="ltr" display="inline" enable-background="accumulate" overflow="visible" transform="translate(0,-952.36218)" visibility="visible" style="text-indent:0;text-transform:none;block-progression:tb"/></g></svg>