<svg xmlns="http://www.w3.org/2000/svg" xmlns:xlink="http://www.w3.org/1999/xlink" id="Layer_1" x="0" y="0" enable-background="new 0 104.9 595.3 644" version="1.1" viewBox="0 104.9 595.3 644" xml:space="preserve"><g><path d="M300.6,623.9l20.8-21.4l0,0l210.7-213.1c11.3-11.9,11.3-30.4,0-42.3c-11.9-11.3-30.4-11.3-42.3,0L329.8,509.6V188.8 c0-16.7-13.1-29.8-29.8-29.8c-16.7,0-29.8,13.1-29.8,29.8v321.5L108.3,347.7c-11.9-11.9-30.4-11.9-42.3,0 c-11.9,11.9-11.9,30.4,0,42.3L300.6,623.9z"/><path d="M86.9,691.8h423.8c16.7,0,29.8-13.1,29.8-29.8c0-16.7-13.1-29.8-29.8-29.8H86.9c-16.7,0-29.8,13.1-29.8,29.8 C57.1,678.7,70.8,691.8,86.9,691.8z"/></g></svg>