<svg xmlns="http://www.w3.org/2000/svg" xmlns:svg="http://www.w3.org/2000/svg" x="0" y="0" fill="#000" version="1.1" viewBox="0 0 100 100"><path font-stretch="normal" style="text-indent:0;text-align:start;line-height:normal;text-transform:none;block-progression:tb;marker:none;-inkscape-font-specification:Sans" fill="#000" fill-opacity="1" stroke="none" stroke-width="6" d="M 49.84375 16 A 3.0003 3.0003 0 0 0 48.1875 16.625 L 6.1875 48.625 A 3.0003 3.0003 0 1 0 9.8125 53.375 L 17 47.90625 L 17 81 A 3.0003 3.0003 0 0 0 20 84 L 40 84 A 3.0003 3.0003 0 0 0 43 81 L 43 62 L 57 62 L 57 81 A 3.0003 3.0003 0 0 0 60 84 L 80 84 A 3.0003 3.0003 0 0 0 83 81 L 83 47.90625 L 90.1875 53.375 A 3.0003 3.0003 0 1 0 93.8125 48.625 L 51.8125 16.625 A 3.0003 3.0003 0 0 0 49.84375 16 z M 50 22.75 L 77 43.3125 L 77 78 L 63 78 L 63 59 A 3.0003 3.0003 0 0 0 60 56 L 40 56 A 3.0003 3.0003 0 0 0 37 59 L 37 78 L 23 78 L 23 43.3125 L 50 22.75 z" baseline-shift="baseline" color="#000" direction="ltr" display="inline" enable-background="accumulate" font-family="Sans" font-size="medium" font-style="normal" font-variant="normal" font-weight="normal" letter-spacing="normal" opacity="1" overflow="visible" text-anchor="start" text-decoration="none" visibility="visible" word-spacing="normal" writing-mode="lr-tb"/></svg>