<svg xmlns="http://www.w3.org/2000/svg" xmlns:xlink="http://www.w3.org/1999/xlink" id="Layer_1" width="139.13" height="148.914" x="0" y="0" enable-background="new 0 0 139.13 148.914" version="1.1" viewBox="0 0 139.13 148.914" xml:space="preserve"><switch><g><polygon fill="#212127" points="68.87 142.565 10.018 108.587 10.018 40.631 68.871 6.653 127.722 40.631 127.722 108.586"/><g><path fill="#6EADC1" d="M38.317,59.813c0.941,0,2.124,0.242,3.549,0.726v0.941v2.554h-1.049c-0.269,0-0.403-0.108-0.457-0.376 c0-0.054-0.054-0.646-0.161-1.774c-0.807-0.188-1.506-0.296-2.097-0.296h-0.027c-0.753,0-1.371,0.215-1.855,0.591 c-0.484,0.376-0.726,0.78-0.726,1.237s0.107,0.807,0.323,1.022c0.376,0.43,0.887,0.726,1.559,0.941 c0.672,0.215,1.237,0.35,1.667,0.511l1.291,0.484c0.43,0.161,0.807,0.43,1.129,0.699c0.752,0.591,1.102,1.371,1.102,2.366 c0,1.291-0.43,2.339-1.317,3.119c-0.914,0.807-2.151,1.264-3.603,1.264c-1.452,0-2.958-0.242-4.409-0.726v-3.549h0.968 c0.215,0,0.35,0.107,0.403,0.322c0,0.081,0.054,0.646,0.161,1.721c0.753,0.376,1.694,0.538,2.77,0.538 c0.887,0,1.586-0.242,2.097-0.672c0.458-0.403,0.699-0.86,0.699-1.371s-0.107-0.887-0.323-1.129 c-0.215-0.242-0.484-0.484-0.806-0.645c-0.323-0.162-0.699-0.323-1.129-0.43c-1.183-0.376-2.017-0.646-2.5-0.86 c-0.484-0.215-0.887-0.484-1.21-0.753c-0.753-0.619-1.129-1.452-1.129-2.527c0-1.103,0.43-1.99,1.291-2.742 c0.914-0.807,2.151-1.183,3.818-1.183H38.317z"/><path fill="#6EADC1" d="M50.363,73.821c-1.748,0-3.146-0.618-4.248-1.855c-1.156-1.291-1.748-3.011-1.748-5.162 c0-2.097,0.538-3.737,1.64-5.028c1.156-1.317,2.77-1.962,4.786-1.962c1.022,0,2.366,0.323,4.033,0.968v3.549H53.75 c-0.269,0-0.403-0.107-0.457-0.376c-0.027-0.107-0.054-0.43-0.107-1.021c-0.054-0.591-0.081-0.86-0.081-0.887 c-0.43-0.134-0.753-0.188-0.968-0.242c-0.538-0.081-1.021-0.108-1.505-0.108s-0.995,0.135-1.479,0.35 c-0.484,0.215-0.914,0.564-1.264,0.995c-0.699,0.914-1.021,2.151-1.021,3.764s0.376,2.904,1.076,3.818 c0.699,0.887,1.64,1.344,2.876,1.344c1.129,0,2.124-0.376,2.984-1.129c0.162-0.161,0.35-0.215,0.538-0.215 c0.188,0,0.322,0.054,0.43,0.215l0.646,0.888C54.288,73.122,52.567,73.821,50.363,73.821z"/><path fill="#6EADC1" d="M63.081,72.477v1.156h-6.264v-1.156c0-0.242,0.161-0.457,0.403-0.511 c0.242-0.054,1.559-0.296,1.559-0.296v-9.706c0,0-1.317-0.242-1.559-0.296c-0.242-0.054-0.403-0.269-0.403-0.511v-1.129h4.329 V71.67c0,0,1.291,0.242,1.533,0.296C62.919,72.02,63.081,72.235,63.081,72.477z M58.403,56.399 c-0.108-0.215-0.135-0.43-0.135-0.646c0-0.215,0.027-0.457,0.135-0.672c0.107-0.215,0.215-0.403,0.376-0.564 c0.162-0.162,0.323-0.269,0.538-0.376c0.215-0.108,0.43-0.135,0.645-0.135c0.215,0,0.43,0.027,0.646,0.135 c0.215,0.107,0.376,0.215,0.538,0.376c0.161,0.161,0.269,0.349,0.376,0.564c0.107,0.215,0.161,0.457,0.161,0.672 c0,0.215-0.054,0.43-0.161,0.646c-0.107,0.215-0.215,0.376-0.376,0.538c-0.161,0.162-0.323,0.269-0.538,0.376 c-0.215,0.107-0.43,0.134-0.646,0.134c-0.215,0-0.43-0.027-0.645-0.134c-0.215-0.107-0.376-0.215-0.538-0.376 C58.618,56.775,58.51,56.614,58.403,56.399z"/><path fill="#6EADC1" d="M70.636,59.813c0.807,0,1.56,0.134,2.259,0.403c0.699,0.269,1.29,0.645,1.773,1.156 c0.484,0.511,0.915,1.156,1.184,1.909c0.27,0.753,0.43,1.613,0.43,2.581c0,0.376-0.026,0.645-0.107,0.753 c-0.08,0.107-0.269,0.188-0.483,0.188h-9.034c0,0.86,0.107,1.613,0.323,2.258c0.215,0.646,0.538,1.129,0.914,1.56 c0.376,0.43,0.807,0.753,1.344,0.968c0.538,0.215,1.075,0.323,1.721,0.323c0.591,0,1.129-0.054,1.559-0.188 c0.43-0.135,0.807-0.296,1.129-0.457c0.323-0.162,0.592-0.296,0.807-0.431c0.215-0.134,0.377-0.215,0.538-0.215 c0.216,0,0.35,0.081,0.457,0.242l0.673,0.887c-0.297,0.376-0.646,0.645-1.076,0.914c-0.43,0.269-0.834,0.511-1.317,0.672 c-0.483,0.162-0.968,0.296-1.452,0.376s-0.995,0.135-1.479,0.135c-0.941,0-1.801-0.162-2.608-0.484 c-0.807-0.322-1.479-0.807-2.07-1.425c-0.592-0.618-1.022-1.371-1.345-2.285c-0.322-0.914-0.484-1.936-0.484-3.119 c0-0.968,0.162-1.828,0.457-2.635c0.296-0.807,0.726-1.559,1.264-2.151c0.538-0.591,1.21-1.075,2.017-1.425 s1.694-0.511,2.662-0.511H70.636z M70.717,61.561c-1.156,0-2.07,0.323-2.715,0.995c-0.646,0.672-1.076,1.613-1.237,2.796h7.394 c0-0.538-0.081-1.049-0.242-1.506c-0.162-0.457-0.35-0.887-0.646-1.21c-0.296-0.322-0.672-0.591-1.102-0.779 c-0.43-0.188-0.941-0.269-1.479-0.269L70.717,61.561z"/><path fill="#6EADC1" d="M82.09,61.964c1.345-1.452,2.851-2.178,4.518-2.178c1.451,0,2.58,0.457,3.387,1.425 c0.754,0.914,1.156,2.178,1.156,3.737v6.694c0.861,0.162,1.371,0.269,1.533,0.323c0.269,0.054,0.43,0.242,0.43,0.511v1.156 h-4.355v-8.657c0-2.151-0.941-3.28-2.85-3.28c-1.344,0-2.581,0.646-3.711,1.909v8.065c0.055,0,0.592,0.108,1.561,0.323 c0.268,0.054,0.402,0.242,0.402,0.511v1.129h-6.264v-1.129c0-0.269,0.107-0.457,0.376-0.511l1.56-0.296v-9.706 c-0.86-0.161-1.398-0.269-1.56-0.323c-0.269-0.054-0.376-0.242-0.376-0.511v-1.129h1.936h1.398c0.322,0,0.537,0.162,0.645,0.484 l0.215,1.479V61.964z"/><path fill="#6EADC1" d="M100.348,73.821c-1.748,0-3.146-0.618-4.248-1.855c-1.156-1.291-1.748-3.011-1.748-5.162 c0-2.097,0.539-3.737,1.641-5.028c1.156-1.317,2.77-1.962,4.785-1.962c1.022,0,2.367,0.323,4.033,0.968v3.549h-1.075 c-0.269,0-0.403-0.107-0.457-0.376c-0.026-0.107-0.054-0.43-0.107-1.021c-0.054-0.591-0.081-0.86-0.081-0.887 c-0.43-0.134-0.752-0.188-0.968-0.242c-0.538-0.081-1.021-0.108-1.505-0.108c-0.484,0-0.995,0.135-1.479,0.35 c-0.483,0.215-0.914,0.564-1.264,0.995c-0.698,0.914-1.021,2.151-1.021,3.764s0.376,2.904,1.075,3.818 c0.699,0.887,1.641,1.344,2.877,1.344c1.129,0,2.124-0.376,2.984-1.129c0.162-0.161,0.35-0.215,0.538-0.215 s0.322,0.054,0.43,0.215l0.646,0.888C104.274,73.122,102.553,73.821,100.348,73.821z"/><path fill="#6EADC1" d="M113.524,59.813c0.807,0,1.559,0.134,2.258,0.403c0.699,0.269,1.291,0.645,1.774,1.156 c0.484,0.511,0.914,1.156,1.183,1.909c0.27,0.753,0.431,1.613,0.431,2.581c0,0.376-0.026,0.645-0.107,0.753 c-0.081,0.107-0.269,0.188-0.483,0.188h-9.034c0,0.86,0.107,1.613,0.322,2.258c0.216,0.646,0.538,1.129,0.915,1.56 c0.376,0.43,0.806,0.753,1.344,0.968c0.537,0.215,1.075,0.323,1.721,0.323c0.592,0,1.129-0.054,1.559-0.188 c0.431-0.135,0.807-0.296,1.13-0.457c0.323-0.162,0.591-0.296,0.807-0.431c0.215-0.134,0.376-0.215,0.538-0.215 c0.215,0,0.35,0.081,0.457,0.242l0.672,0.887c-0.296,0.376-0.646,0.645-1.076,0.914c-0.43,0.269-0.833,0.511-1.316,0.672 c-0.484,0.162-0.969,0.296-1.452,0.376s-0.995,0.135-1.479,0.135c-0.94,0-1.801-0.162-2.607-0.484 c-0.807-0.322-1.479-0.807-2.07-1.425s-1.021-1.371-1.344-2.285s-0.484-1.936-0.484-3.119c0-0.968,0.162-1.828,0.457-2.635 c0.296-0.807,0.727-1.559,1.264-2.151c0.538-0.591,1.21-1.075,2.017-1.425s1.694-0.511,2.661-0.511H113.524z M113.604,61.561 c-1.156,0-2.07,0.323-2.715,0.995c-0.646,0.672-1.076,1.613-1.237,2.796h7.394c0-0.538-0.08-1.049-0.242-1.506 c-0.161-0.457-0.35-0.887-0.645-1.21c-0.297-0.322-0.672-0.591-1.103-0.779c-0.431-0.188-0.941-0.269-1.479-0.269L113.604,61.561 z"/></g><g><path fill="#C9AC4D" d="M84.7,84.511c-1.829,0-2.743,1.021-2.743,3.092v1.264h3.925v1.721H82.01v9.652 c1.076,0.161,1.667,0.269,1.802,0.295c0.269,0.055,0.403,0.242,0.403,0.512v1.156h-6.668v-1.156c0-0.27,0.135-0.457,0.403-0.512 l1.667-0.295v-9.599l-1.506-0.188c-0.43-0.107-0.645-0.295-0.645-0.618v-0.968h2.15v-1.317c0-1.56,0.403-2.77,1.264-3.63 c0.834-0.86,1.963-1.264,3.414-1.264c0.592,0,1.156,0.107,1.694,0.27l-0.054,1.209c0,0.162-0.081,0.27-0.242,0.323 s-0.35,0.054-0.618,0.054h-0.403H84.7z"/><path fill="#C9AC4D" d="M99.379,100.482c0.242,0.053,0.403,0.269,0.403,0.51v1.156h-1.747h-0.188h-0.86 c-0.215,0-0.403-0.053-0.564-0.107c-0.162-0.054-0.215-0.215-0.27-0.43l-0.269-1.291c-0.376,0.322-0.753,0.619-1.075,0.888 s-0.699,0.483-1.076,0.646c-0.376,0.161-0.752,0.295-1.182,0.402c-0.431,0.107-0.915,0.135-1.453,0.135 c-0.537,0-0.994-0.08-1.451-0.242c-0.457-0.161-0.887-0.35-1.21-0.645c-0.323-0.296-0.591-0.672-0.807-1.129 c-0.215-0.457-0.296-0.996-0.296-1.613c0-0.538,0.135-1.076,0.431-1.561c0.296-0.483,0.806-0.967,1.452-1.344 c0.645-0.377,1.505-0.726,2.58-0.968c1.076-0.242,2.366-0.35,3.926-0.35v-1.048c0-1.076-0.242-1.883-0.699-2.42 c-0.457-0.538-1.129-0.834-2.016-0.834c-0.592,0-1.076,0.08-1.479,0.242c-0.403,0.161-0.726,0.295-1.021,0.484 c-0.296,0.188-0.564,0.322-0.78,0.483c-0.215,0.161-0.402,0.215-0.617,0.215c-0.162,0-0.323-0.026-0.431-0.107 c-0.108-0.081-0.216-0.215-0.269-0.322L87.98,90.48c0.753-0.727,1.56-1.236,2.42-1.613s1.828-0.537,2.903-0.537 c0.753,0,1.452,0.107,2.043,0.376c0.592,0.269,1.076,0.591,1.479,1.021s0.698,0.968,0.914,1.613 c0.215,0.646,0.296,1.345,0.296,2.097v6.803c0.376,0.08,1.183,0.242,1.344,0.295V100.482z M95.669,96.072 c-1.103,0-2.044,0.055-2.796,0.188c-0.753,0.135-1.398,0.35-1.883,0.564c-0.483,0.216-0.859,0.484-1.075,0.807 c-0.215,0.323-0.322,0.646-0.322,1.022c0,0.376,0.081,0.645,0.188,0.914c0.107,0.269,0.269,0.483,0.483,0.645 c0.216,0.162,0.431,0.27,0.699,0.35s0.564,0.135,0.888,0.135c0.43,0,0.779-0.055,1.129-0.135s0.672-0.188,0.994-0.35 c0.323-0.161,0.619-0.376,0.888-0.592c0.269-0.215,0.538-0.483,0.807-0.752V96.072z"/><path fill="#C9AC4D" d="M107.581,101.046v1.156h-6.264v-1.156c0-0.242,0.16-0.457,0.402-0.512c0.242-0.053,1.56-0.295,1.56-0.295 v-9.706c0,0-1.317-0.242-1.56-0.296s-0.402-0.269-0.402-0.511v-1.13h4.328v11.643c0,0,1.291,0.242,1.533,0.295 C107.419,100.589,107.581,100.804,107.581,101.046z M102.903,84.968c-0.107-0.215-0.135-0.43-0.135-0.646 c0-0.215,0.027-0.457,0.135-0.672c0.107-0.216,0.215-0.403,0.376-0.564s0.323-0.269,0.538-0.376 c0.215-0.108,0.43-0.135,0.645-0.135c0.216,0,0.431,0.026,0.646,0.135c0.215,0.107,0.376,0.215,0.537,0.376 s0.27,0.349,0.377,0.564c0.107,0.215,0.16,0.457,0.16,0.672c0,0.216-0.053,0.431-0.16,0.646s-0.216,0.377-0.377,0.537 c-0.161,0.162-0.322,0.27-0.537,0.377c-0.216,0.107-0.431,0.135-0.646,0.135c-0.215,0-0.43-0.027-0.645-0.135 s-0.377-0.215-0.538-0.377C103.118,85.345,103.01,85.183,102.903,84.968z"/><path fill="#C9AC4D" d="M113.389,91.367c0.994-2.016,2.365-3.037,4.141-3.037c0.698,0,1.316,0.16,1.854,0.483l-0.296,1.802 c-0.054,0.215-0.188,0.35-0.35,0.35c-0.161,0-0.376-0.055-0.645-0.135c-0.27-0.081-0.619-0.135-1.104-0.135 c-1.559,0-2.742,0.968-3.494,2.85v6.722c0.215,0.054,0.726,0.135,1.532,0.296c0.269,0.054,0.403,0.242,0.403,0.511v1.13h-6.265 v-1.13c0-0.269,0.134-0.457,0.403-0.511l1.533-0.296V90.56c-0.861-0.16-1.372-0.269-1.533-0.322 c-0.27-0.054-0.403-0.242-0.403-0.511v-1.13h1.937h1.371c0.268,0,0.402,0.027,0.51,0.135s0.162,0.27,0.216,0.512l0.161,2.123 H113.389z"/></g><line x1="18.018" x2="72.37" y1="49.631" y2="18.251" fill="none" stroke="#6EADC1" stroke-miterlimit="10" stroke-width="5.541"/><line x1="73.172" x2="18.821" y1="130.582" y2="99.203" fill="none" stroke="#C9AC4D" stroke-miterlimit="10" stroke-width="5.541"/></g></switch></svg>